<?xml version="1.0" encoding="utf-8"?>
<!-- Generator: Adobe Illustrator 16.0.0, SVG Export Plug-In . SVG Version: 6.00 Build 0)  -->
<!DOCTYPE svg PUBLIC "-//W3C//DTD SVG 1.1//EN" "http://www.w3.org/Graphics/SVG/1.1/DTD/svg11.dtd">
<svg version="1.1" id="Layer_1" xmlns="http://www.w3.org/2000/svg" xmlns:xlink="http://www.w3.org/1999/xlink" x="0px" y="0px"
	 width="98.75px" height="128.5px" viewBox="0 0 98.75 128.5" enable-background="new 0 0 98.75 128.5" xml:space="preserve">
<g>
	<path fill-rule="evenodd" clip-rule="evenodd" d="M95.684,55.514h0.004c-0.004,0-0.004,0-0.004-0.004s0-0.008,0-0.008l0,0
		c-0.826-4.994-5.738-4.58-7.658-4.543c-1.592,0-3.91-1.988-2.119-4.313c0.693-0.934,1.055-2.078,1.055-3.254
		c0-3.443-2.979-6.23-6.658-6.23s-6.662,2.787-6.662,6.23c0,1.176,0.361,2.32,1.059,3.254c1.791,2.324-0.531,4.313-2.123,4.313
		c-1.229-0.021-3.963-0.127-5.811,1.057c0.188-0.645,0.285-1.381,0.307-2.201c0.004-0.115,0.016-0.141,0.016-0.279l0.004-0.125
		v-5.201c0.059-0.816,0.039-1.553,0.027-2.055v-16c0.033-1.99,0.51-7.078-5.141-7.932v-0.004c0,0-0.004,0-0.006,0s-0.002,0-0.002,0
		l0,0c-0.051,0-0.369-0.043-0.918-0.043c-1.432-0.131-2.557-0.146-3.453-0.219c-1.676-0.135-4.14-2.143-2.244-4.656
		c0.734-1.002,1.121-2.244,1.121-3.52c0-3.719-3.155-6.736-7.036-6.736c-3.89,0-7.037,3.018-7.037,6.736
		c0,1.275,0.383,2.518,1.119,3.52c1.891,2.514-0.562,4.656-2.243,4.656l-4.079,0.252c-5.443,0.357-5.183,5.949-5.146,7.938v0.063
		h-0.049V49.41l0.004,0.041c0.004,0.16,0.009,0.172,0.004,0.281c-0.025,0.838-0.012,1.598,0.064,2.271
		c-1.84-1.387-4.688-1.277-5.979-1.256c-1.592,0-3.913-1.982-2.124-4.311c0.699-0.928,1.06-2.076,1.06-3.252
		c0-3.443-2.985-6.23-6.661-6.23c-3.68,0-6.663,2.787-6.663,6.23c0,1.176,0.364,2.324,1.061,3.252
		c1.793,2.328-0.527,4.311-2.123,4.311c-1.919-0.029-6.834-0.447-7.654,4.547H2.992v0.004c0,0.004,0,0.006,0,0.006l0,0
		c0,0.428-0.027,21.725-0.016,21.914c0.35,4.816,5.744,4.584,7.67,4.551c1.598,0,3.92,1.982,2.125,4.311
		c-0.698,0.924-1.061,2.072-1.061,3.248c0,3.439,2.987,6.227,6.672,6.227c3.689,0,6.671-2.787,6.671-6.227
		c0-1.176-0.361-2.324-1.06-3.248c-1.793-2.328,0.53-4.311,2.123-4.311c1.923,0.033,6.851,0.451,7.671-4.551
		c0.005-0.043,0.005-1.879,0-4.471c-0.244-1.406-2.133-3.125-4.317-1.617c-0.94,0.631-2.098,0.955-3.289,0.955
		c-3.473,0-6.289-2.695-6.289-6.016c0-3.328,2.816-6.021,6.289-6.021c1.191,0,2.349,0.332,3.289,0.955
		c2.116,1.465,3.981,0.156,4.29-1.482c0.027-2.324-0.008-4.109-0.008-4.217h0.003c-0.012-0.156-0.027-0.309-0.048-0.451
		c0.009,0.004,0.013,0.012,0.021,0.012c0.123-2.926,6.876-2.977,8.275-3.111c1.617-0.156,3.99-2.076,2.166-4.504
		c-0.711-0.973-1.08-2.17-1.08-3.402c0-3.6,3.041-6.521,6.804-6.521c3.755,0,6.805,2.922,6.805,6.521
		c0,1.232-0.814,2.43-1.526,3.402c-1.834,2.428,0.333,4.318,2.173,4.613c1.396,0.225,7.357,0.871,7.814,2.658
		c0.057-0.031-0.041,0.066,0.016,0.033l0.01,0.045c0.016,0.33,0.02,0.502,0.012,0.889H65.2c0,0.105-0.066,1.789-0.072,4.199
		c0.082,1.439,1.961,2.992,4.08,1.527c0.941-0.631,2.098-0.959,3.285-0.959c3.475,0,6.293,2.697,6.293,6.023
		c0,3.322-2.818,6.018-6.293,6.018c-1.188,0-2.344-0.328-3.285-0.961c-2.186-1.506-4.074,0.215-4.32,1.617
		c-0.002,2.59-0.002,4.43,0.004,4.475c0.822,5.002,5.742,4.582,7.67,4.549c1.594,0,3.918,1.986,2.123,4.311
		c-0.699,0.93-1.061,2.072-1.061,3.25c0,3.439,2.984,6.227,6.672,6.227c3.684,0,6.672-2.787,6.672-6.227
		c0-1.178-0.361-2.32-1.061-3.25c-1.795-2.324,0.527-4.311,2.123-4.311c1.924,0.033,7.322,0.266,7.666-4.549
		C95.713,77.238,95.688,55.943,95.684,55.514z"/>
	<g>
		<path d="M9.067,111.221l3.011-5.25l0.604,5.25H9.067z M15.082,102.164h-4.389l-8.822,14.713h3.967l1.744-3.046h5.376l0.347,3.046
			h3.834L15.082,102.164z"/>
		<path d="M32.736,117.193c-0.755,0-1.463-0.094-2.125-0.281c-0.659-0.188-1.236-0.482-1.729-0.879
			c-0.48-0.391-0.855-0.879-1.125-1.468s-0.404-1.271-0.404-2.044c0-0.999,0.189-1.928,0.568-2.783
			c0.377-0.857,0.908-1.606,1.593-2.248c0.67-0.628,1.489-1.125,2.456-1.492s2.011-0.552,3.136-0.552
			c0.677,0,1.35,0.077,2.017,0.228c0.668,0.15,1.287,0.371,1.859,0.66l-0.748,3.027h-0.502c-0.387-0.467-0.824-0.815-1.313-1.043
			c-0.49-0.227-1.038-0.341-1.648-0.341c-1.115,0-2.01,0.401-2.687,1.204c-0.676,0.801-1.013,1.799-1.013,2.996
			c0,0.832,0.207,1.453,0.624,1.865c0.415,0.414,1.063,0.619,1.94,0.619c0.681,0,1.303-0.143,1.862-0.43
			c0.56-0.285,1.04-0.604,1.44-0.955h0.5l-0.749,3.052c-0.709,0.312-1.333,0.534-1.868,0.667
			C34.287,117.127,33.59,117.193,32.736,117.193z"/>
		<path d="M53.317,105.763h2.753l-0.536,2.333H52.9l-2.037,8.781h-3.572l2.037-8.781h-1.523l0.533-2.333h1.52l0.068-0.286
			c0.302-1.342,0.855-2.361,1.658-3.059c0.804-0.697,1.993-1.046,3.567-1.046c0.581,0,1.085,0.019,1.513,0.054
			s0.796,0.082,1.107,0.141l-0.58,2.456h-0.268c-0.151-0.05-0.365-0.102-0.646-0.155c-0.279-0.055-0.538-0.082-0.773-0.082
			c-0.658,0-1.135,0.133-1.435,0.398c-0.299,0.266-0.543,0.765-0.731,1.498L53.317,105.763z"/>
		<path d="M71.041,113.984c-0.348,0.255-0.719,0.465-1.114,0.629s-0.767,0.246-1.112,0.246c-0.529,0-0.933-0.076-1.212-0.234
			c-0.276-0.156-0.415-0.428-0.415-0.816c0-0.439,0.104-0.793,0.314-1.061c0.207-0.267,0.514-0.475,0.911-0.619
			c0.389-0.143,0.856-0.248,1.406-0.322c0.55-0.072,1.138-0.137,1.769-0.19L71.041,113.984z M70.371,116.877h3.523l1.747-7.561
			c0.039-0.158,0.069-0.342,0.095-0.554c0.021-0.212,0.033-0.382,0.033-0.517c0-0.955-0.405-1.66-1.216-2.116
			c-0.808-0.455-2.078-0.684-3.807-0.684c-0.86,0-1.721,0.066-2.585,0.2c-0.866,0.133-1.507,0.252-1.92,0.358l-0.519,2.646h0.321
			c0.354-0.131,0.881-0.297,1.583-0.494c0.702-0.198,1.345-0.297,1.925-0.297c0.855,0,1.499,0.094,1.932,0.276
			c0.43,0.186,0.646,0.507,0.646,0.967c0,0.11-0.012,0.211-0.033,0.302c-0.023,0.09-0.035,0.155-0.043,0.195
			c-1.227,0.074-2.363,0.186-3.414,0.338c-1.052,0.152-1.957,0.4-2.717,0.744c-0.811,0.363-1.424,0.854-1.837,1.463
			c-0.412,0.613-0.617,1.36-0.617,2.24c0,0.834,0.289,1.511,0.87,2.029c0.581,0.52,1.329,0.779,2.25,0.779
			c0.57,0,1.015-0.039,1.337-0.12c0.321-0.081,0.667-0.198,1.036-0.353c0.267-0.119,0.558-0.283,0.874-0.491
			c0.314-0.208,0.584-0.386,0.809-0.534L70.371,116.877z"/>
		<path d="M89.588,117.193c-0.949,0-1.871-0.089-2.762-0.268c-0.89-0.18-1.574-0.388-2.049-0.626l0.685-2.943h0.329
			c0.146,0.132,0.329,0.274,0.551,0.433c0.22,0.158,0.536,0.324,0.947,0.494c0.351,0.158,0.759,0.295,1.221,0.406
			c0.465,0.114,0.965,0.17,1.501,0.17c0.799,0,1.399-0.096,1.799-0.289c0.401-0.193,0.602-0.467,0.602-0.826
			c0-0.264-0.144-0.467-0.428-0.605c-0.286-0.139-0.878-0.309-1.775-0.514c-1.521-0.352-2.563-0.773-3.124-1.271
			c-0.562-0.494-0.843-1.111-0.843-1.852c0-1.256,0.562-2.246,1.683-2.969c1.123-0.724,2.641-1.087,4.554-1.087
			c0.831,0,1.661,0.084,2.495,0.253c0.83,0.168,1.441,0.348,1.828,0.538l-0.654,2.808H95.84c-0.471-0.373-1.037-0.677-1.703-0.911
			c-0.666-0.235-1.35-0.354-2.051-0.354c-0.762,0-1.345,0.096-1.753,0.285c-0.405,0.189-0.61,0.479-0.61,0.872
			c0,0.29,0.178,0.515,0.528,0.669c0.354,0.156,0.907,0.314,1.664,0.48c1.408,0.305,2.425,0.688,3.046,1.149
			c0.623,0.464,0.932,1.111,0.932,1.942c0,1.244-0.566,2.223-1.701,2.939S91.522,117.193,89.588,117.193z"/>
	</g>
	<line fill="none" stroke="#000000" stroke-width="1.0145" x1="2.304" y1="125.75" x2="96.369" y2="125.75"/>
</g>
</svg>
